<svg width="470" height="512" viewBox="0 0 470 512" fill="none" xmlns="http://www.w3.org/2000/svg">
<path d="M156.5 118L67.5 171.5L58.5 304L104.5 350L298 356.5L398 330.5V171.5L311 118H156.5Z" fill="white"/>
<path d="M55.3733 452.181H359.565L345.037 405.141C347.192 407.019 469.667 512 469.667 512V52.8C468.216 24.256 443.64 0 413.176 0L55.48 0.064C25.0373 0.064 0.333328 24.3627 0.333328 52.9067V399.36C0.333328 429.461 24.9947 452.181 55.3733 452.181ZM280.397 121.237L279.693 121.493L279.949 121.237H280.397ZM117.603 148.309C156.707 119.851 192.952 121.216 192.952 121.216L195.875 124.096C148.024 135.509 126.328 156.885 126.328 156.885C128.547 156.416 225.165 100.672 342.243 158.293C342.243 158.293 320.504 138.304 275.597 125.504L279.565 121.6C285.773 121.621 318.627 122.773 353.784 148.48C353.784 148.48 393.123 215.68 393.123 298.24C391.821 296.661 368.717 333.781 309.261 335.061C309.261 335.061 299.192 323.669 292.024 313.728C326.797 303.744 339.811 283.776 339.811 283.776C272.12 326.4 212.792 319.744 141.816 290.944C141.155 290.944 140.856 290.645 140.515 290.304V290.176C140.173 289.856 139.875 289.536 139.213 289.536H137.933C133.581 286.677 130.68 285.269 130.68 285.269C130.68 285.269 143.672 305.237 177.059 315.221C168.291 325.227 159.608 336.597 159.608 336.597C100.173 335.189 78.4987 298.069 78.4987 298.069C78.4987 215.381 117.603 148.309 117.603 148.309Z" fill="#445282"/>
<path d="M284.237 272.448C299.405 272.448 311.757 259.648 311.757 243.861C311.757 228.181 299.469 215.381 284.237 215.381V215.445C269.133 215.445 256.76 228.203 256.717 243.989C256.717 259.648 269.069 272.448 284.237 272.448Z" fill="#445282"/>
<path d="M185.72 272.448C200.888 272.448 213.24 259.648 213.24 243.861C213.24 228.181 200.973 215.381 185.805 215.381L185.72 215.445C170.552 215.445 158.2 228.203 158.2 243.989C158.2 259.648 170.552 272.448 185.72 272.448V272.448Z" fill="#445282"/>
</svg>
