<?xml version="1.0" encoding="UTF-8" standalone="no"?>
<svg
   xmlns:dc="http://purl.org/dc/elements/1.1/"
   xmlns:cc="http://creativecommons.org/ns#"
   xmlns:rdf="http://www.w3.org/1999/02/22-rdf-syntax-ns#"
   xmlns:svg="http://www.w3.org/2000/svg"
   xmlns="http://www.w3.org/2000/svg"
   xmlns:sodipodi="http://sodipodi.sourceforge.net/DTD/sodipodi-0.dtd"
   xmlns:inkscape="http://www.inkscape.org/namespaces/inkscape"
   width="512px"
   height="350px"
   viewBox="0 0 512 350"
   version="1.1"
   id="SVGRoot"
   sodipodi:docname="discord.svg"
   inkscape:version="1.0.1 (3bc2e813f5, 2020-09-07)">
  <defs
     id="defs936" />
  <sodipodi:namedview
     id="base"
     pagecolor="#ffffff"
     bordercolor="#666666"
     borderopacity="1.0"
     inkscape:pageopacity="0.0"
     inkscape:pageshadow="2"
     inkscape:zoom="1.979899"
     inkscape:cx="267.62717"
     inkscape:cy="203.93664"
     inkscape:document-units="px"
     inkscape:current-layer="layer1"
     inkscape:document-rotation="0"
     showgrid="false"
     inkscape:window-width="1920"
     inkscape:window-height="1057"
     inkscape:window-x="-8"
     inkscape:window-y="-8"
     inkscape:window-maximized="1" />
  <metadata
     id="metadata939">
    <rdf:RDF>
      <cc:Work
         rdf:about="">
        <dc:format>image/svg+xml</dc:format>
        <dc:type
           rdf:resource="http://purl.org/dc/dcmitype/StillImage" />
        <dc:title></dc:title>
      </cc:Work>
    </rdf:RDF>
  </metadata>
  <g
     inkscape:label="Layer 1"
     inkscape:groupmode="layer"
     id="layer1">
    <path
       style="fill:#ffffff;fill-opacity:1;stroke-width:1.01152"
       d="M 108.2008,348.47723 C 76.002478,344.07225 48.451708,332.91435 25.856868,315.12844 16.835908,308.02744 9.224228,300.44274 3.656672,293.00693 0.072336,288.21985 0,287.93862 0,278.7906 0,266.07714 1.657336,245.31464 4.129131,227.0624 11.823558,170.2451 29.609928,112.12526 55.330658,59.753047 l 7.62923,-15.534532 10.73859,-7.08639 C 103.72016,17.320806 144.65183,2.662815 176.45831,0.33294995 c 8.41829,-0.6166479 9.24407,-0.5074441 11.00829,1.45579405 2.18272,2.428996 2.46877,2.244675 -7.2919,4.698644 -19.90135,5.003455 -50.14926,16.961181 -68.39876,27.039654 -15.545702,8.585264 -34.965402,22.324684 -33.552542,23.738386 0.25078,0.250931 2.2065,-0.436523 4.34605,-1.527701 23.563602,-12.017472 64.345802,-25.210783 95.771142,-30.982591 27.65842,-5.079931 39.61059,-6.083666 72.44256,-6.083666 34.52316,0 46.7136,1.122506 76.3473,7.030197 31.78156,6.335868 69.90493,18.929847 93.72752,30.962699 3.32435,1.679121 6.52763,2.891732 7.11847,2.694663 0.59082,-0.197048 -2.069,-2.689841 -5.91067,-5.539518 C 399.43948,37.035837 370.85833,22.743184 337.5595,11.560215 l -15.86274,-5.327281 2.77218,-2.657511 c 3.36236,-3.22328405 8.21271,-3.44685905 23.97446,-1.105044 29.14583,4.330337 62.26029,17.34511 88.99931,34.978807 l 10.48324,6.913456 6.97426,13.944704 c 32.39618,64.774874 52.09685,137.907484 55.9537,207.710584 L 512,286.76049 l -9.83305,9.6124 c -32.07165,31.35202 -69.20111,47.42149 -117.91185,51.03175 l -8.60482,0.63775 -8.58596,-10.37413 c -4.72228,-5.7058 -10.97241,-13.42463 -13.88916,-17.153 l -5.30318,-6.77885 8.33685,-2.71549 c 12.38546,-4.03423 33.41256,-14.5735 43.64236,-21.87458 9.22107,-6.58115 22.7735,-19.22323 24.93027,-23.25561 l 1.20343,-2.24999 -3.9222,2.37752 c -29.79618,18.06154 -56.90626,30.1503 -84.82001,37.82241 -56.27471,15.46715 -112.2546,12.66823 -182.39917,-9.11972 -14.26029,-4.42947 -47.98474,-16.78706 -54.22688,-19.87026 -1.668522,-0.82413 -5.906802,-2.96781 -9.418392,-4.7637 -3.51159,-1.7959 -6.64492,-3.00492 -6.96293,-2.6867 -1.17945,1.18016 20.722742,21.62388 29.021602,27.08905 10.56716,6.95892 23.86384,13.67763 35.8984,18.1392 5.00555,1.85572 9.27071,3.49067 9.47813,3.63327 0.20743,0.14265 -2.10101,3.12494 -5.12986,6.62745 -3.02884,3.50251 -9.25033,11.03525 -13.82552,16.73946 L 131.35953,350 l -6.77605,-0.10418 c -3.72683,-0.0574 -11.09904,-0.69569 -16.38268,-1.41853 z m 75.62072,-103.2125 c 8.39461,-1.98035 13.59272,-4.73864 19.70194,-10.45452 13.14663,-12.30018 18.31825,-28.69876 14.48613,-45.9338 -7.92897,-35.66072 -50.93607,-48.15397 -75.83858,-22.03056 -17.9315,18.81065 -17.56554,48.01455 0.83148,66.34818 11.56425,11.52442 25.57369,15.66719 40.81903,12.0707 z m 159.18592,0.4006 c 18.63466,-3.92179 33.11025,-19.48075 36.21461,-38.92497 4.86501,-30.47218 -21.90957,-58.33185 -51.23021,-53.30641 -36.5486,6.26429 -51.17977,51.56829 -25.44679,78.79352 6.53593,6.91494 12.41955,10.4737 21.04613,12.7299 7.85595,2.05466 12.25522,2.21507 19.41626,0.70796 z"
       id="path72" />
  </g>
</svg>
